<?xml version="1.0" encoding="UTF-8"?>
<!DOCTYPE svg PUBLIC "-//W3C//DTD SVG 1.1//EN" "http://www.w3.org/Graphics/SVG/1.1/DTD/svg11.dtd">
<svg xmlns="http://www.w3.org/2000/svg" version="1.1" width="70px" height="65px" style="shape-rendering:geometricPrecision; text-rendering:geometricPrecision; image-rendering:optimizeQuality; fill-rule:evenodd; clip-rule:evenodd" xmlns:xlink="http://www.w3.org/1999/xlink">
<g><path style="opacity:0.033" fill="#f6eaea" d="M 37.5,5.5 C 43.31,4.51045 49.31,4.17711 55.5,4.5C 55.4938,7.97635 57.1604,9.97635 60.5,10.5C 58.5,10.5 56.5,10.5 54.5,10.5C 54.5,9.16667 54.5,7.83333 54.5,6.5C 49.0247,5.51114 43.358,5.1778 37.5,5.5 Z"/></g>
<g><path style="opacity:0.65" fill="#ea7877" d="M 37.5,5.5 C 43.358,5.1778 49.0247,5.51114 54.5,6.5C 40.5,6.5 26.5,6.5 12.5,6.5C 12.5,7.5 12.5,8.5 12.5,9.5C 12.5,10.1667 12.1667,10.5 11.5,10.5C 11.5,8.83333 11.5,7.16667 11.5,5.5C 20.1667,5.5 28.8333,5.5 37.5,5.5 Z"/></g>
<g><path style="opacity:1" fill="#df1b13" d="M 54.5,6.5 C 54.5,7.83333 54.5,9.16667 54.5,10.5C 56.5,10.5 58.5,10.5 60.5,10.5C 61.7475,13.7995 61.7475,17.1328 60.5,20.5C 60.6716,21.4916 60.3382,22.1583 59.5,22.5C 59.6716,21.5084 59.3382,20.8417 58.5,20.5C 58.5,20.1667 58.5,19.8333 58.5,19.5C 59.4682,17.3926 59.8016,15.0593 59.5,12.5C 57.5,12.5 55.5,12.5 53.5,12.5C 53.4828,14.5648 53.1495,16.5648 52.5,18.5C 51.6618,18.1583 51.3284,17.4916 51.5,16.5C 51.5,15.8333 51.5,15.1667 51.5,14.5C 52.2829,12.6568 52.9495,10.6568 53.5,8.5C 40.5171,7.50088 27.5171,7.16754 14.5,7.5C 13.8333,8.16667 13.1667,8.83333 12.5,9.5C 12.5,8.5 12.5,7.5 12.5,6.5C 26.5,6.5 40.5,6.5 54.5,6.5 Z"/></g>
<g><path style="opacity:0.319" fill="#f0b7b7" d="M 14.5,8.5 C 14.5,8.16667 14.5,7.83333 14.5,7.5C 27.5171,7.16754 40.5171,7.50088 53.5,8.5C 52.9495,10.6568 52.2829,12.6568 51.5,14.5C 51.5,12.5 51.5,10.5 51.5,8.5C 39.1667,8.5 26.8333,8.5 14.5,8.5 Z"/></g>
<g><path style="opacity:0.991" fill="#e95442" d="M 14.5,7.5 C 14.5,7.83333 14.5,8.16667 14.5,8.5C 15.2178,13.9867 16.5511,19.3201 18.5,24.5C 18.4021,26.5529 19.0687,28.2196 20.5,29.5C 20.427,31.0269 21.0937,32.0269 22.5,32.5C 22.427,34.0269 23.0937,35.0269 24.5,35.5C 31.532,41.3595 37.8654,40.6929 43.5,33.5C 44.6522,32.375 45.6522,32.375 46.5,33.5C 44.3108,37.5203 41.3108,40.687 37.5,43C 37.8362,45.9205 39.1695,48.0871 41.5,49.5C 40.5084,49.3284 39.8417,49.6618 39.5,50.5C 36.1078,49.01 34.7745,46.3434 35.5,42.5C 34.4324,41.5655 33.099,41.2322 31.5,41.5C 31.5,42.5 31.5,43.5 31.5,44.5C 31.539,47.089 30.539,49.089 28.5,50.5C 27.791,49.596 26.791,49.2627 25.5,49.5C 31.0891,45.3559 30.7557,41.8559 24.5,39C 21.4024,36.572 19.069,33.572 17.5,30C 7.96498,27.4374 4.13165,21.2707 6,11.5C 7.69946,10.5939 9.5328,10.2606 11.5,10.5C 12.1667,10.5 12.5,10.1667 12.5,9.5C 13.1667,8.83333 13.8333,8.16667 14.5,7.5 Z M 14.5,20.5 C 14.5,21.8333 14.5,23.1667 14.5,24.5C 13.5,24.5 12.5,24.5 11.5,24.5C 8.52501,21.0918 7.52501,17.2585 8.5,13C 9.79323,12.51 11.1266,12.3433 12.5,12.5C 12.8583,15.2666 13.525,17.9333 14.5,20.5 Z"/></g>
<g><path style="opacity:0.219" fill="#f4d4d3" d="M 58.5,19.5 C 58.5,17.5 58.5,15.5 58.5,13.5C 57.448,13.3505 56.448,13.5172 55.5,14C 54.7709,16.0581 53.7709,17.8914 52.5,19.5C 52.5,19.1667 52.5,18.8333 52.5,18.5C 53.1495,16.5648 53.4828,14.5648 53.5,12.5C 55.5,12.5 57.5,12.5 59.5,12.5C 59.8016,15.0593 59.4682,17.3926 58.5,19.5 Z"/></g>
<g><path style="opacity:0.037" fill="#f5e6e6" d="M 60.5,10.5 C 62.4841,10.484 63.4841,11.484 63.5,13.5C 63.2394,16.2918 62.2394,18.6251 60.5,20.5C 61.7475,17.1328 61.7475,13.7995 60.5,10.5 Z"/></g>
<g><path style="opacity:0.741" fill="#f18e87" d="M 32.5,16.5 C 31.8166,18.1765 30.4832,18.8432 28.5,18.5C 29.6715,17.6554 31.0048,16.9887 32.5,16.5 Z"/></g>
<g><path style="opacity:0.995" fill="#ea5948" d="M 39.5,22.5 C 39.0276,24.5313 38.0276,26.1979 36.5,27.5C 34.4301,26.4927 32.4301,26.826 30.5,28.5C 29.6919,28.1924 29.0253,27.6924 28.5,27C 29.5536,25.6124 29.7203,24.1124 29,22.5C 27.9783,21.646 27.1449,20.646 26.5,19.5C 26.9569,18.7025 27.6236,18.3691 28.5,18.5C 30.4832,18.8432 31.8166,18.1765 32.5,16.5C 33.6863,12.5869 35.0197,12.5869 36.5,16.5C 37.7287,17.2811 39.062,17.7811 40.5,18C 41.9156,19.9151 41.5822,21.4151 39.5,22.5 Z M 33.5,18.5 C 38.4956,20.4445 38.3289,22.4445 33,24.5C 32.6905,23.2341 32.1905,22.0674 31.5,21C 32.3805,20.2917 33.0472,19.4584 33.5,18.5 Z"/></g>
<g><path style="opacity:0.022" fill="#f5d4d3" d="M 14.5,20.5 C 15.3058,21.9972 15.9724,23.6639 16.5,25.5C 14.5615,26.6336 12.8948,26.3003 11.5,24.5C 12.5,24.5 13.5,24.5 14.5,24.5C 14.5,23.1667 14.5,21.8333 14.5,20.5 Z"/></g>
<g><path style="opacity:1" fill="#e94f3c" d="M 51.5,16.5 C 51.3284,17.4916 51.6618,18.1583 52.5,18.5C 52.5,18.8333 52.5,19.1667 52.5,19.5C 52.5,20.1667 52.5,20.8333 52.5,21.5C 51.0527,22.6222 50.0527,24.1222 49.5,26C 52.4807,26.838 54.8141,26.0047 56.5,23.5C 56.9321,22.2905 57.5987,21.2905 58.5,20.5C 59.3382,20.8417 59.6716,21.5084 59.5,22.5C 58.3882,25.9464 56.0548,27.9464 52.5,28.5C 50.5168,28.1568 49.1834,28.8235 48.5,30.5C 48.5,31.1667 48.1667,31.5 47.5,31.5C 46.7611,31.631 46.0944,31.4643 45.5,31C 46.5822,29.6703 47.2488,28.1703 47.5,26.5C 48.2667,22.8512 49.6001,19.5178 51.5,16.5 Z"/></g>
<g><path style="opacity:0.024" fill="#f5d8d7" d="M 52.5,21.5 C 52.281,22.675 52.6143,23.675 53.5,24.5C 54.4168,23.8728 55.4168,23.5394 56.5,23.5C 54.8141,26.0047 52.4807,26.838 49.5,26C 50.0527,24.1222 51.0527,22.6222 52.5,21.5 Z"/></g>
<g><path style="opacity:0.059" fill="#f5e1e0" d="M 18.5,24.5 C 19.9313,25.7804 20.5979,27.4471 20.5,29.5C 19.0687,28.2196 18.4021,26.5529 18.5,24.5 Z"/></g>
<g><path style="opacity:0.451" fill="#f3b0ad" d="M 39.5,22.5 C 39.3573,24.2624 39.6906,25.9291 40.5,27.5C 39.0416,28.782 37.7082,28.782 36.5,27.5C 38.0276,26.1979 39.0276,24.5313 39.5,22.5 Z"/></g>
<g><path style="opacity:0.035" fill="#f5e2e2" d="M 52.5,28.5 C 51.3285,29.3446 49.9952,30.0113 48.5,30.5C 49.1834,28.8235 50.5168,28.1568 52.5,28.5 Z"/></g>
<g><path style="opacity:0.075" fill="#f5e1e1" d="M 20.5,29.5 C 21.9063,29.9731 22.573,30.9731 22.5,32.5C 21.0937,32.0269 20.427,31.0269 20.5,29.5 Z"/></g>
<g><path style="opacity:1" fill="#f7a69b" d="M 47.5,26.5 C 47.2488,28.1703 46.5822,29.6703 45.5,31C 46.0944,31.4643 46.7611,31.631 47.5,31.5C 47.6716,32.4916 47.3382,33.1583 46.5,33.5C 45.6522,32.375 44.6522,32.375 43.5,33.5C 44.0787,30.6689 45.412,28.3356 47.5,26.5 Z"/></g>
<g><path style="opacity:0.243" fill="#f3cbcb" d="M 22.5,32.5 C 23.9063,32.9731 24.573,33.9731 24.5,35.5C 23.0937,35.0269 22.427,34.0269 22.5,32.5 Z"/></g>
<g><path style="opacity:0.125" fill="#f1c7c7" d="M 35.5,42.5 C 33.8007,42.5271 32.4674,43.1938 31.5,44.5C 31.5,43.5 31.5,42.5 31.5,41.5C 33.099,41.2322 34.4324,41.5655 35.5,42.5 Z"/></g>
<g><path style="opacity:0.996" fill="#ea533f" d="M 25.5,49.5 C 26.791,49.2627 27.791,49.596 28.5,50.5C 27.8333,50.5 27.1667,50.5 26.5,50.5C 25.7109,50.7828 25.0442,51.2828 24.5,52C 27.8168,52.4983 31.1501,52.665 34.5,52.5C 36.8205,51.3751 39.1538,51.2084 41.5,52C 40.9558,51.2828 40.2891,50.7828 39.5,50.5C 39.8417,49.6618 40.5084,49.3284 41.5,49.5C 44.8594,50.4597 48.0261,51.7931 51,53.5C 51.0158,57.2231 50.5158,60.8898 49.5,64.5C 45.1667,64.5 40.8333,64.5 36.5,64.5C 29.9881,63.8334 23.3214,63.1667 16.5,62.5C 16.0263,59.2547 16.0263,55.9214 16.5,52.5C 19.8174,52.3357 22.8174,51.3357 25.5,49.5 Z M 46.5,54.5 C 46.8333,55.5 47.5,56.1667 48.5,56.5C 48.5,57.1667 48.5,57.8333 48.5,58.5C 41.9278,60.0868 35.2611,61.0868 28.5,61.5C 25.5,61.5 22.5,61.5 19.5,61.5C 18.232,59.3298 18.232,57.1632 19.5,55C 28.4938,54.5002 37.4938,54.3336 46.5,54.5 Z"/></g>
<g><path style="opacity:0.054" fill="#f1c2c2" d="M 26.5,50.5 C 29.1667,51.1667 31.8333,51.8333 34.5,52.5C 31.1501,52.665 27.8168,52.4983 24.5,52C 25.0442,51.2828 25.7109,50.7828 26.5,50.5 Z"/></g>
<g><path style="opacity:0.647" fill="#e75a59" d="M 48.5,54.5 C 47.8333,54.5 47.1667,54.5 46.5,54.5C 37.4938,54.3336 28.4938,54.5002 19.5,55C 18.232,57.1632 18.232,59.3298 19.5,61.5C 18.2749,60.8478 17.6083,59.6811 17.5,58C 17.5589,56.5643 17.8922,55.231 18.5,54C 28.6753,53.1751 38.6753,53.3417 48.5,54.5 Z"/></g>
<g><path style="opacity:0.029" fill="#f5efef" d="M 46.5,54.5 C 47.1667,54.5 47.8333,54.5 48.5,54.5C 48.5,55.1667 48.5,55.8333 48.5,56.5C 47.5,56.1667 46.8333,55.5 46.5,54.5 Z"/></g>
<g><path style="opacity:0.1" fill="#f0b6b6" d="M 48.5,58.5 C 48.5,59.5 48.5,60.5 48.5,61.5C 41.8333,61.5 35.1667,61.5 28.5,61.5C 35.2611,61.0868 41.9278,60.0868 48.5,58.5 Z"/></g>
</svg>
