<?xml version="1.0" encoding="UTF-8"?>
<!DOCTYPE svg PUBLIC "-//W3C//DTD SVG 1.1//EN" "http://www.w3.org/Graphics/SVG/1.1/DTD/svg11.dtd">
<svg xmlns="http://www.w3.org/2000/svg" version="1.1" width="70px" height="65px" style="shape-rendering:geometricPrecision; text-rendering:geometricPrecision; image-rendering:optimizeQuality; fill-rule:evenodd; clip-rule:evenodd" xmlns:xlink="http://www.w3.org/1999/xlink">
<g><path style="opacity:0.933" fill="#ea5848" d="M 21.5,16.5 C 21.7373,17.791 21.404,18.791 20.5,19.5C 19.0472,16.6469 17.8806,13.6469 17,10.5C 16.2917,11.3805 15.4584,12.0472 14.5,12.5C 14.6716,11.5084 14.3382,10.8417 13.5,10.5C 15.0881,8.38428 17.0881,8.05095 19.5,9.5C 20.3249,11.8013 20.9916,14.1346 21.5,16.5 Z"/></g>
<g><path style="opacity:0.989" fill="#e74b3b" d="M 13.5,10.5 C 14.3382,10.8417 14.6716,11.5084 14.5,12.5C 14.5,12.8333 14.5,13.1667 14.5,13.5C 13.8333,13.5 13.5,13.8333 13.5,14.5C 11.5188,15.1054 11.1854,16.1054 12.5,17.5C 11.596,18.209 11.2627,19.209 11.5,20.5C 10.7321,19.7375 10.2321,18.7375 10,17.5C 8.9609,18.7101 7.79423,19.7101 6.5,20.5C 5.22086,21.968 3.5542,22.6347 1.5,22.5C 5.16667,18.1667 9.16667,14.1667 13.5,10.5 Z"/></g>
<g><path style="opacity:0.996" fill="#e95340" d="M 14.5,13.5 C 16.4168,16.331 18.0834,19.331 19.5,22.5C 19.6716,23.4916 19.3382,24.1583 18.5,24.5C 17.1667,22.8333 15.8333,21.1667 14.5,19.5C 14.6716,18.5084 14.3382,17.8417 13.5,17.5C 13.5,16.5 13.5,15.5 13.5,14.5C 13.5,13.8333 13.8333,13.5 14.5,13.5 Z"/></g>
<g><path style="opacity:0.996" fill="#ed6755" d="M 12.5,17.5 C 12.8333,17.5 13.1667,17.5 13.5,17.5C 13.3284,18.4916 13.6618,19.1583 14.5,19.5C 14.5,20.5 14.5,21.5 14.5,22.5C 13.5655,23.5676 13.2322,24.901 13.5,26.5C 13.1667,26.5 12.8333,26.5 12.5,26.5C 12.4828,24.4352 12.1495,22.4352 11.5,20.5C 11.2627,19.209 11.596,18.209 12.5,17.5 Z"/></g>
<g><path style="opacity:0.863" fill="#ed6552" d="M 21.5,16.5 C 23.4707,18.8082 25.4707,21.1415 27.5,23.5C 26.5084,23.3284 25.8417,23.6618 25.5,24.5C 23.5,23.1667 21.8333,21.5 20.5,19.5C 21.404,18.791 21.7373,17.791 21.5,16.5 Z"/></g>
<g><path style="opacity:0.999" fill="#ea5b4d" d="M 38.5,23.5 C 37.609,24.1098 36.609,24.4431 35.5,24.5C 34.791,23.596 33.791,23.2627 32.5,23.5C 32.5,22.8333 32.1667,22.5 31.5,22.5C 34.1482,19.7376 36.4815,20.0709 38.5,23.5 Z"/></g>
<g><path style="opacity:0.979" fill="#eb5f4f" d="M 6.5,20.5 C 7.5,23.5 9.5,25.5 12.5,26.5C 12.5,26.8333 12.5,27.1667 12.5,27.5C 11.5084,27.3284 10.8417,27.6618 10.5,28.5C 2.28892,21.5886 1.62226,22.2552 8.5,30.5C 7.50838,30.3284 6.84171,30.6618 6.5,31.5C 4.53717,30.0401 2.70383,28.3734 1,26.5C 0.235015,24.9343 0.401682,23.6009 1.5,22.5C 3.5542,22.6347 5.22086,21.968 6.5,20.5 Z"/></g>
<g><path style="opacity:0.999" fill="#e84f3f" d="M 31.5,22.5 C 32.1667,22.5 32.5,22.8333 32.5,23.5C 33.209,24.404 34.209,24.7373 35.5,24.5C 36.609,24.4431 37.609,24.1098 38.5,23.5C 39.9063,23.9731 40.573,24.9731 40.5,26.5C 39.6043,25.4937 38.9377,25.4937 38.5,26.5C 37.209,26.2627 36.209,26.596 35.5,27.5C 34.448,27.3505 33.448,27.5172 32.5,28C 33.305,29.1127 33.9717,30.2794 34.5,31.5C 33.8333,31.8333 33.1667,32.1667 32.5,32.5C 31.0788,28.9611 28.7454,26.2944 25.5,24.5C 25.8417,23.6618 26.5084,23.3284 27.5,23.5C 28.9587,23.5674 30.2921,23.2341 31.5,22.5 Z"/></g>
<g><path style="opacity:1" fill="#e43a2b" d="M 40.5,26.5 C 41.6737,27.5137 42.3404,28.847 42.5,30.5C 42.6716,31.4916 42.3382,32.1583 41.5,32.5C 39.2771,31.8185 37.9437,30.8185 37.5,29.5C 37.1667,29.5 36.8333,29.5 36.5,29.5C 36.7822,28.2223 37.4489,27.2223 38.5,26.5C 38.9377,25.4937 39.6043,25.4937 40.5,26.5 Z"/></g>
<g><path style="opacity:0.988" fill="#eb5c4a" d="M 19.5,22.5 C 21.7349,25.2911 23.7349,28.2911 25.5,31.5C 24.8333,31.8333 24.1667,32.1667 23.5,32.5C 21.3218,30.1416 19.6551,27.4749 18.5,24.5C 19.3382,24.1583 19.6716,23.4916 19.5,22.5 Z"/></g>
<g><path style="opacity:0.067" fill="#f3d6d6" d="M 38.5,26.5 C 37.4489,27.2223 36.7822,28.2223 36.5,29.5C 35.6618,29.1583 35.3284,28.4916 35.5,27.5C 36.209,26.596 37.209,26.2627 38.5,26.5 Z"/></g>
<g><path style="opacity:0.947" fill="#ea5543" d="M 14.5,22.5 C 15.531,24.9608 16.1977,27.6275 16.5,30.5C 16.5,31.5 16.5,32.5 16.5,33.5C 13.8908,32.5569 11.8908,30.8903 10.5,28.5C 10.8417,27.6618 11.5084,27.3284 12.5,27.5C 13.1667,27.5 13.5,27.1667 13.5,26.5C 13.2322,24.901 13.5655,23.5676 14.5,22.5 Z"/></g>
<g><path style="opacity:0.996" fill="#eb5b4a" d="M 8.5,30.5 C 13.1518,33.8207 17.4851,37.4874 21.5,41.5C 20.5084,41.3284 19.8417,41.6618 19.5,42.5C 14.8482,39.1793 10.5149,35.5126 6.5,31.5C 6.84171,30.6618 7.50838,30.3284 8.5,30.5 Z"/></g>
<g><path style="opacity:0.991" fill="#ed6754" d="M 25.5,31.5 C 27.1667,32.5 28.5,33.8333 29.5,35.5C 28.6618,35.8417 28.3284,36.5084 28.5,37.5C 26.5,36.1667 24.8333,34.5 23.5,32.5C 24.1667,32.1667 24.8333,31.8333 25.5,31.5 Z"/></g>
<g><path style="opacity:0.553" fill="#ed8380" d="M 37.5,29.5 C 37.9437,30.8185 39.2771,31.8185 41.5,32.5C 41.1667,33.1667 40.8333,33.8333 40.5,34.5C 38.7215,33.3303 37.7215,31.6636 37.5,29.5 Z"/></g>
<g><path style="opacity:0.996" fill="#eb5e4d" d="M 16.5,30.5 C 19.192,32.8623 21.8587,35.1956 24.5,37.5C 23.5084,37.3284 22.8417,37.6618 22.5,38.5C 20.0905,37.2993 18.0905,35.6326 16.5,33.5C 16.5,32.5 16.5,31.5 16.5,30.5 Z"/></g>
<g><path style="opacity:0.945" fill="#ec614d" d="M 34.5,31.5 C 37.2382,34.2463 40.2382,36.5797 43.5,38.5C 42.209,38.2627 41.209,38.596 40.5,39.5C 37.2157,37.883 34.5491,35.5497 32.5,32.5C 33.1667,32.1667 33.8333,31.8333 34.5,31.5 Z"/></g>
<g><path style="opacity:0.988" fill="#e85242" d="M 42.5,30.5 C 44.8532,32.8599 46.8532,35.5265 48.5,38.5C 47.7109,38.7828 47.0442,39.2828 46.5,40C 47.5707,40.8518 48.5707,41.6851 49.5,42.5C 46.2854,42.0951 43.2854,41.0951 40.5,39.5C 41.209,38.596 42.209,38.2627 43.5,38.5C 44.2389,38.631 44.9056,38.4643 45.5,38C 44.0445,36.3743 42.3779,35.2076 40.5,34.5C 40.8333,33.8333 41.1667,33.1667 41.5,32.5C 42.3382,32.1583 42.6716,31.4916 42.5,30.5 Z"/></g>
<g><path style="opacity:0.992" fill="#eb5c49" d="M 29.5,35.5 C 32.5693,38.5771 35.9026,41.2437 39.5,43.5C 38.5084,43.3284 37.8417,43.6618 37.5,44.5C 33.9485,42.8892 30.9485,40.5558 28.5,37.5C 28.3284,36.5084 28.6618,35.8417 29.5,35.5 Z"/></g>
<g><path style="opacity:0.996" fill="#ea5746" d="M 24.5,37.5 C 27.8103,39.4821 30.8103,41.8154 33.5,44.5C 32.5084,44.3284 31.8417,44.6618 31.5,45.5C 28.1897,43.5179 25.1897,41.1846 22.5,38.5C 22.8417,37.6618 23.5084,37.3284 24.5,37.5 Z"/></g>
<g><path style="opacity:0.992" fill="#e95140" d="M 48.5,38.5 C 53.3521,41.5133 58.6854,43.3466 64.5,44C 65.056,44.3826 65.3893,44.8826 65.5,45.5C 64.8333,46.1667 64.1667,46.8333 63.5,47.5C 63.6716,46.5084 63.3382,45.8417 62.5,45.5C 57.8792,45.5942 53.5459,44.5942 49.5,42.5C 48.5707,41.6851 47.5707,40.8518 46.5,40C 47.0442,39.2828 47.7109,38.7828 48.5,38.5 Z"/></g>
<g><path style="opacity:0.99" fill="#e95544" d="M 21.5,41.5 C 25.817,44.4864 29.817,47.8197 33.5,51.5C 32.5084,51.3284 31.8417,51.6618 31.5,52.5C 27.183,49.5136 23.183,46.1803 19.5,42.5C 19.8417,41.6618 20.5084,41.3284 21.5,41.5 Z"/></g>
<g><path style="opacity:0.986" fill="#eb5d4b" d="M 33.5,44.5 C 36.7959,47.3122 40.4626,49.3122 44.5,50.5C 43.448,50.3505 42.448,50.5172 41.5,51C 42.7375,51.2321 43.7375,51.7321 44.5,52.5C 44.1667,52.5 43.8333,52.5 43.5,52.5C 38.8792,51.191 34.8792,48.8577 31.5,45.5C 31.8417,44.6618 32.5084,44.3284 33.5,44.5 Z"/></g>
<g><path style="opacity:0.991" fill="#eb6251" d="M 39.5,43.5 C 44.7419,45.6243 50.0752,46.9576 55.5,47.5C 52.6146,47.1936 49.9479,47.5269 47.5,48.5C 43.6733,48.2484 40.3399,46.9151 37.5,44.5C 37.8417,43.6618 38.5084,43.3284 39.5,43.5 Z"/></g>
<g><path style="opacity:0.325" fill="#f0b5b5" d="M 62.5,45.5 C 63.3382,45.8417 63.6716,46.5084 63.5,47.5C 61.8333,47.5 60.1667,47.5 58.5,47.5C 59.8333,46.8333 61.1667,46.1667 62.5,45.5 Z"/></g>
<g><path style="opacity:0.99" fill="#e33628" d="M 65.5,45.5 C 67.1042,46.287 67.7709,47.6203 67.5,49.5C 67.5,51.5 67.5,53.5 67.5,55.5C 67.1667,55.5 66.8333,55.5 66.5,55.5C 65.209,55.7373 64.209,55.404 63.5,54.5C 64.5,54.1667 65.1667,53.5 65.5,52.5C 64.1667,51.8333 62.8333,51.1667 61.5,50.5C 62.9217,50.2914 64.255,49.7914 65.5,49C 63.4024,48.3224 61.4024,48.4891 59.5,49.5C 55.2984,49.8168 51.2984,49.4834 47.5,48.5C 49.9479,47.5269 52.6146,47.1936 55.5,47.5C 56.5,47.5 57.5,47.5 58.5,47.5C 60.1667,47.5 61.8333,47.5 63.5,47.5C 64.1667,46.8333 64.8333,46.1667 65.5,45.5 Z"/></g>
<g><path style="opacity:0.31" fill="#f2bbbb" d="M 61.5,50.5 C 60.8333,50.5 60.1667,50.5 59.5,50.5C 59.5,50.1667 59.5,49.8333 59.5,49.5C 61.4024,48.4891 63.4024,48.3224 65.5,49C 64.255,49.7914 62.9217,50.2914 61.5,50.5 Z"/></g>
<g><path style="opacity:0.11" fill="#f4d5d4" d="M 67.5,49.5 C 68.1667,49.8333 68.8333,50.1667 69.5,50.5C 69.5,52.1667 69.5,53.8333 69.5,55.5C 68.8333,55.5 68.1667,55.5 67.5,55.5C 67.5,53.5 67.5,51.5 67.5,49.5 Z"/></g>
<g><path style="opacity:0.992" fill="#de0402" d="M 44.5,50.5 C 44.8333,50.5 45.1667,50.5 45.5,50.5C 50.3165,51.3261 55.3165,51.8261 60.5,52C 55.1771,52.4994 49.8437,52.666 44.5,52.5C 43.7375,51.7321 42.7375,51.2321 41.5,51C 42.448,50.5172 43.448,50.3505 44.5,50.5 Z"/></g>
<g><path style="opacity:0.733" fill="#f08a83" d="M 45.5,50.5 C 50.1667,50.5 54.8333,50.5 59.5,50.5C 60.1667,50.5 60.8333,50.5 61.5,50.5C 62.8333,51.1667 64.1667,51.8333 65.5,52.5C 58.0177,53.7017 50.6844,53.7017 43.5,52.5C 43.8333,52.5 44.1667,52.5 44.5,52.5C 49.8437,52.666 55.1771,52.4994 60.5,52C 55.3165,51.8261 50.3165,51.3261 45.5,50.5 Z"/></g>
<g><path style="opacity:0.984" fill="#e84f3f" d="M 31.5,52.5 C 31.8417,51.6618 32.5084,51.3284 33.5,51.5C 35.738,53.1155 38.0713,54.4488 40.5,55.5C 39.209,55.2627 38.209,55.596 37.5,56.5C 35.2279,55.5589 33.2279,54.2255 31.5,52.5 Z"/></g>
<g><path style="opacity:0.784" fill="#ed7067" d="M 63.5,54.5 C 64.209,55.404 65.209,55.7373 66.5,55.5C 64.0392,56.531 61.3725,57.1977 58.5,57.5C 57.0813,56.5489 55.4147,56.2155 53.5,56.5C 56.6267,55.4192 59.9601,54.7526 63.5,54.5 Z"/></g>
<g><path style="opacity:0.873" fill="#ea5441" d="M 37.5,56.5 C 38.209,55.596 39.209,55.2627 40.5,55.5C 44.81,56.0802 49.1434,56.4135 53.5,56.5C 55.4147,56.2155 57.0813,56.5489 58.5,57.5C 51.3833,60.2139 44.3833,59.8806 37.5,56.5 Z"/></g>
</svg>
