<?xml version="1.0" encoding="UTF-8"?>
<!DOCTYPE svg PUBLIC "-//W3C//DTD SVG 1.1//EN" "http://www.w3.org/Graphics/SVG/1.1/DTD/svg11.dtd">
<svg xmlns="http://www.w3.org/2000/svg" version="1.1" width="70px" height="65px" style="shape-rendering:geometricPrecision; text-rendering:geometricPrecision; image-rendering:optimizeQuality; fill-rule:evenodd; clip-rule:evenodd" xmlns:xlink="http://www.w3.org/1999/xlink">
<g><path style="opacity:1" fill="#e53c2a" d="M 25.5,6.5 C 26.8999,7.09982 27.8999,8.09982 28.5,9.5C 28.5,10.5 28.5,11.5 28.5,12.5C 27.636,15.6423 26.9693,18.9757 26.5,22.5C 26.5,23.1667 26.5,23.8333 26.5,24.5C 25.5655,23.4324 25.2322,22.099 25.5,20.5C 24.5,20.5 23.5,20.5 22.5,20.5C 21.8333,20.5 21.1667,20.5 20.5,20.5C 20.5,19.8333 20.5,19.1667 20.5,18.5C 21.8333,18.5 23.1667,18.5 24.5,18.5C 25.1442,14.3495 25.4775,10.3495 25.5,6.5 Z"/></g>
<g><path style="opacity:0.173" fill="#f1bbba" d="M 25.5,6.5 C 26.209,5.59603 27.209,5.26269 28.5,5.5C 28.5,6.83333 28.5,8.16667 28.5,9.5C 27.8999,8.09982 26.8999,7.09982 25.5,6.5 Z"/></g>
<g><path style="opacity:1" fill="#e84936" d="M 41.5,12.5 C 41.1984,15.0593 41.5318,17.3926 42.5,19.5C 43.5676,20.4345 44.901,20.7678 46.5,20.5C 45.4324,21.4345 44.099,21.7678 42.5,21.5C 40.4677,22.0478 39.4677,23.3812 39.5,25.5C 39.7947,27.7354 39.4614,29.7354 38.5,31.5C 37.5655,30.4324 37.2322,29.099 37.5,27.5C 37.5,27.1667 37.5,26.8333 37.5,26.5C 38.8146,25.1054 38.4812,24.1054 36.5,23.5C 38.0778,20.6047 39.0778,17.438 39.5,14C 39.8361,12.9701 40.5028,12.4701 41.5,12.5 Z"/></g>
<g><path style="opacity:0.486" fill="#ed9594" d="M 41.5,12.5 C 41.9397,14.8439 42.9397,16.8439 44.5,18.5C 44.1583,19.3382 43.4916,19.6716 42.5,19.5C 41.5318,17.3926 41.1984,15.0593 41.5,12.5 Z"/></g>
<g><path style="opacity:1" fill="#ea5c4b" d="M 20.5,18.5 C 20.5,19.1667 20.5,19.8333 20.5,20.5C 16.1603,21.3411 12.827,23.6745 10.5,27.5C 10.6716,26.5084 10.3382,25.8417 9.5,25.5C 11.6222,20.9288 15.2889,18.5955 20.5,18.5 Z"/></g>
<g><path style="opacity:1" fill="#ec604f" d="M 28.5,12.5 C 29.3745,15.5349 30.3745,18.5349 31.5,21.5C 31.1898,23.1436 30.1898,24.1436 28.5,24.5C 28.5,23.1667 27.8333,22.5 26.5,22.5C 26.9693,18.9757 27.636,15.6423 28.5,12.5 Z"/></g>
<g><path style="opacity:1" fill="#e22a1c" d="M 44.5,18.5 C 47.3854,18.1936 50.0521,18.5269 52.5,19.5C 51.4324,20.4345 50.099,20.7678 48.5,20.5C 47.8333,20.5 47.1667,20.5 46.5,20.5C 44.901,20.7678 43.5676,20.4345 42.5,19.5C 43.4916,19.6716 44.1583,19.3382 44.5,18.5 Z"/></g>
<g><path style="opacity:1" fill="#ed6654" d="M 52.5,19.5 C 56.4287,20.4308 59.0953,22.7641 60.5,26.5C 59.6043,25.4937 58.9377,25.4937 58.5,26.5C 55.7168,23.4474 52.3835,21.4474 48.5,20.5C 50.099,20.7678 51.4324,20.4345 52.5,19.5 Z"/></g>
<g><path style="opacity:1" fill="#e84d3d" d="M 36.5,23.5 C 38.4812,24.1054 38.8146,25.1054 37.5,26.5C 36.8333,26.5 36.5,26.8333 36.5,27.5C 35.3478,28.625 34.3478,28.625 33.5,27.5C 33.7822,26.2223 34.4489,25.2223 35.5,24.5C 35.5,23.8333 35.8333,23.5 36.5,23.5 Z"/></g>
<g><path style="opacity:1" fill="#ec665a" d="M 31.5,21.5 C 32.6366,22.7888 33.9699,23.7888 35.5,24.5C 34.4489,25.2223 33.7822,26.2223 33.5,27.5C 32.8333,26.8333 32.1667,26.1667 31.5,25.5C 31.1667,24.1667 30.8333,24.1667 30.5,25.5C 29.5489,26.9187 29.2155,28.5853 29.5,30.5C 28.5386,28.7354 28.2053,26.7354 28.5,24.5C 30.1898,24.1436 31.1898,23.1436 31.5,21.5 Z"/></g>
<g><path style="opacity:0.978" fill="#eb6257" d="M 42.5,21.5 C 42.5,23.1667 42.5,24.8333 42.5,26.5C 41.5111,31.9753 41.1778,37.642 41.5,43.5C 40.8333,37.5 40.1667,31.5 39.5,25.5C 39.4677,23.3812 40.4677,22.0478 42.5,21.5 Z"/></g>
<g><path style="opacity:1" fill="#eb6258" d="M 22.5,20.5 C 23.5,20.5 24.5,20.5 25.5,20.5C 25.2322,22.099 25.5655,23.4324 26.5,24.5C 26.8195,29.3633 26.4861,34.03 25.5,38.5C 25.8168,34.2984 25.4834,30.2984 24.5,26.5C 24.7413,24.1137 24.0746,22.1137 22.5,20.5 Z"/></g>
<g><path style="opacity:1" fill="#e7452d" d="M 9.5,25.5 C 10.3382,25.8417 10.6716,26.5084 10.5,27.5C 10.5,27.8333 10.5,28.1667 10.5,28.5C 9.84014,29.964 9.50681,31.6307 9.5,33.5C 9.55608,35.6397 10.2227,37.3064 11.5,38.5C 11.5,38.8333 11.5,39.1667 11.5,39.5C 10.8333,39.8333 10.1667,40.1667 9.5,40.5C 7.26465,40.7947 5.26465,40.4614 3.5,39.5C 4.91866,38.5489 6.58533,38.2155 8.5,38.5C 8.5,34.8333 8.5,31.1667 8.5,27.5C 8.32842,26.5084 8.66175,25.8417 9.5,25.5 Z"/></g>
<g><path style="opacity:1" fill="#df180e" d="M 42.5,26.5 C 42.5,27.1667 42.5,27.8333 42.5,28.5C 42.0573,34.0577 42.7239,39.391 44.5,44.5C 42.6941,47.3382 41.6941,47.0048 41.5,43.5C 41.1778,37.642 41.5111,31.9753 42.5,26.5 Z"/></g>
<g><path style="opacity:1" fill="#eb6251" d="M 30.5,25.5 C 30.8333,25.5 31.1667,25.5 31.5,25.5C 31.8333,29.5 32.1667,33.5 32.5,37.5C 31.5386,39.2646 31.2053,41.2646 31.5,43.5C 30.2911,39.3819 29.6245,35.0485 29.5,30.5C 29.2155,28.5853 29.5489,26.9187 30.5,25.5 Z"/></g>
<g><path style="opacity:1" fill="#e74533" d="M 60.5,26.5 C 61.4794,29.6248 61.8128,32.9581 61.5,36.5C 60.8333,34.8333 60.1667,33.1667 59.5,31.5C 58.6993,29.9582 58.366,28.2915 58.5,26.5C 58.9377,25.4937 59.6043,25.4937 60.5,26.5 Z"/></g>
<g><path style="opacity:1" fill="#ec6354" d="M 36.5,27.5 C 36.8333,27.5 37.1667,27.5 37.5,27.5C 37.2322,29.099 37.5655,30.4324 38.5,31.5C 38.3541,35.3875 37.6874,39.0542 36.5,42.5C 36.7845,40.5853 36.4511,38.9187 35.5,37.5C 35.8333,34.1667 36.1667,30.8333 36.5,27.5 Z"/></g>
<g><path style="opacity:1" fill="#ec5b48" d="M 59.5,31.5 C 60.1667,33.1667 60.8333,34.8333 61.5,36.5C 69.6296,38.5103 69.2963,40.0103 60.5,41C 59.6195,41.7083 58.9528,42.5416 58.5,43.5C 57.6618,43.1583 57.3284,42.4916 57.5,41.5C 57.631,40.7611 57.4643,40.0944 57,39.5C 53.9433,40.4505 50.7766,40.7839 47.5,40.5C 46.6618,40.1583 46.3284,39.4916 46.5,38.5C 50.3525,37.8337 54.3525,37.167 58.5,36.5C 59.3094,34.9291 59.6427,33.2624 59.5,31.5 Z"/></g>
<g><path style="opacity:0.945" fill="#e84f47" d="M 8.5,27.5 C 8.5,31.1667 8.5,34.8333 8.5,38.5C 6.58533,38.2155 4.91866,38.5489 3.5,39.5C 1.62143,39.6068 1.2881,39.1068 2.5,38C 4.13414,37.5065 5.80081,37.3398 7.5,37.5C 7.18723,33.9581 7.52056,30.6248 8.5,27.5 Z"/></g>
<g><path style="opacity:0.914" fill="#ed6559" d="M 10.5,28.5 C 10.2229,31.4475 10.5562,34.2809 11.5,37C 15.4862,37.4988 19.4862,37.6655 23.5,37.5C 19.7016,38.4834 15.7016,38.8168 11.5,38.5C 10.2227,37.3064 9.55608,35.6397 9.5,33.5C 9.50681,31.6307 9.84014,29.964 10.5,28.5 Z"/></g>
<g><path style="opacity:1" fill="#e33524" d="M 24.5,26.5 C 25.4834,30.2984 25.8168,34.2984 25.5,38.5C 25.5,39.1667 25.1667,39.5 24.5,39.5C 20.1667,39.5 15.8333,39.5 11.5,39.5C 11.5,39.1667 11.5,38.8333 11.5,38.5C 15.7016,38.8168 19.7016,38.4834 23.5,37.5C 23.3227,33.7657 23.6561,30.0991 24.5,26.5 Z"/></g>
<g><path style="opacity:0.029" fill="#f3d9d9" d="M 11.5,39.5 C 15.8333,39.5 20.1667,39.5 24.5,39.5C 20.5,40.1667 16.5,40.8333 12.5,41.5C 11.6618,41.1583 11.3284,40.4916 11.5,39.5 Z"/></g>
<g><path style="opacity:1" fill="#ea5645" d="M 11.5,39.5 C 11.3284,40.4916 11.6618,41.1583 12.5,41.5C 12.8333,42.1667 13.1667,42.8333 13.5,43.5C 13.5,44.5 13.5,45.5 13.5,46.5C 11.1782,45.1979 9.8449,43.1979 9.5,40.5C 10.1667,40.1667 10.8333,39.8333 11.5,39.5 Z"/></g>
<g><path style="opacity:1" fill="#ed766b" d="M 42.5,28.5 C 43.3247,32.6472 43.8247,36.9805 44,41.5C 44.8518,40.4293 45.6851,39.4293 46.5,38.5C 46.3284,39.4916 46.6618,40.1583 47.5,40.5C 46.9744,42.2303 45.9744,43.5637 44.5,44.5C 42.7239,39.391 42.0573,34.0577 42.5,28.5 Z"/></g>
<g><path style="opacity:0.937" fill="#ee7268" d="M 57.5,41.5 C 57.3284,42.4916 57.6618,43.1583 58.5,43.5C 56.5,46.1667 54.1667,48.5 51.5,50.5C 51.6716,49.5084 51.3382,48.8417 50.5,48.5C 53.1667,46.5 55.5,44.1667 57.5,41.5 Z"/></g>
<g><path style="opacity:1" fill="#eb5b49" d="M 32.5,37.5 C 33.1481,39.0858 33.6481,40.7525 34,42.5C 34.1981,40.6183 34.6981,38.9516 35.5,37.5C 36.4511,38.9187 36.7845,40.5853 36.5,42.5C 36.8731,46.6649 35.8731,50.3315 33.5,53.5C 31.9741,50.3462 31.3075,47.0128 31.5,43.5C 31.2053,41.2646 31.5386,39.2646 32.5,37.5 Z"/></g>
<g><path style="opacity:1" fill="#eb5e4b" d="M 13.5,43.5 C 17.3312,47.5714 21.6646,50.9047 26.5,53.5C 25.5084,53.3284 24.8417,53.6618 24.5,54.5C 19.9391,53.0538 16.2724,50.3871 13.5,46.5C 13.5,45.5 13.5,44.5 13.5,43.5 Z"/></g>
<g><path style="opacity:1" fill="#eb5e4d" d="M 50.5,48.5 C 51.3382,48.8417 51.6716,49.5084 51.5,50.5C 49.178,52.664 46.5113,54.3307 43.5,55.5C 42.5084,55.6716 41.8417,55.3382 41.5,54.5C 44.2911,52.2651 47.2911,50.2651 50.5,48.5 Z"/></g>
<g><path style="opacity:1" fill="#e84f3f" d="M 26.5,53.5 C 28.7952,54.4746 30.7952,55.8079 32.5,57.5C 31.5084,57.3284 30.8417,57.6618 30.5,58.5C 28.2048,57.5254 26.2048,56.1921 24.5,54.5C 24.8417,53.6618 25.5084,53.3284 26.5,53.5 Z"/></g>
<g><path style="opacity:0.914" fill="#ec6355" d="M 41.5,54.5 C 41.8417,55.3382 42.5084,55.6716 43.5,55.5C 41.7952,57.1921 39.7952,58.5254 37.5,59.5C 37.6716,58.5084 37.3382,57.8417 36.5,57.5C 37.8993,56.1103 39.5659,55.1103 41.5,54.5 Z"/></g>
<g><path style="opacity:1" fill="#e95544" d="M 32.5,57.5 C 33.8333,58.8333 35.1667,58.8333 36.5,57.5C 37.3382,57.8417 37.6716,58.5084 37.5,59.5C 34.905,62.0672 32.5717,61.7339 30.5,58.5C 30.8417,57.6618 31.5084,57.3284 32.5,57.5 Z"/></g>
</svg>
